<svg width="174" height="20" viewBox="0 0 174 20" fill="none" xmlns="http://www.w3.org/2000/svg">
<path d="M73.2882 5.51358L70.3561 13.0652L66.8169 5.51358H64.779L61.4878 13.2361L58.4872 5.51358H54.6182L60.662 19.8562L61.8673 19.858L65.7604 11.384L69.6722 19.8636H70.8775L76.9453 5.51358H73.2882Z" fill="#17449C"/>
<path d="M73.2882 5.51358L70.3561 13.0652L66.8169 5.51358H64.779L61.4878 13.2361L58.4872 5.51358H54.6182L60.662 19.8562L61.8673 19.858L65.7604 11.384L69.6722 19.8636H70.8775L76.9453 5.51358H73.2882Z" fill="#17449C"/>
<path d="M89.5202 13.5783L79.99 13.5709C80.2261 14.4933 80.6791 15.2044 81.3442 15.706C82.0109 16.2076 82.8368 16.4575 83.8215 16.4575C85.1551 16.4575 86.4151 15.9687 87.6017 14.9894L89.1339 17.6977C87.5265 19.1493 85.7176 19.8732 83.7104 19.8713C81.575 19.8695 79.8037 19.1382 78.3983 17.6757C76.993 16.2131 76.292 14.4033 76.292 12.2444C76.2937 10.1056 76.9758 8.30132 78.3368 6.83141C79.6977 5.36151 81.3818 4.62656 83.3907 4.62656C85.2713 4.62839 86.8049 5.27699 87.9897 6.57235C89.1763 7.8677 89.7683 9.47726 89.7665 11.401C89.7683 12.1065 89.6844 12.8341 89.5202 13.5783ZM81.1972 8.62838C80.6124 9.15758 80.2106 9.8741 79.99 10.7763L86.1792 10.78C86.1621 9.87782 85.8697 9.16121 85.3038 8.63022C84.7379 8.09921 84.054 7.83462 83.2505 7.83462C82.4675 7.83462 81.7818 8.09921 81.1972 8.62838Z" fill="#17449C"/>
<path d="M89.5202 13.5783L79.99 13.5709C80.2261 14.4933 80.6791 15.2044 81.3442 15.706C82.0109 16.2076 82.8368 16.4575 83.8215 16.4575C85.1551 16.4575 86.4151 15.9687 87.6017 14.9894L89.1339 17.6977C87.5265 19.1493 85.7176 19.8732 83.7104 19.8713C81.575 19.8695 79.8037 19.1382 78.3983 17.6757C76.993 16.2131 76.292 14.4033 76.292 12.2444C76.2937 10.1056 76.9758 8.30132 78.3368 6.83141C79.6977 5.36151 81.3818 4.62656 83.3907 4.62656C85.2713 4.62839 86.8049 5.27699 87.9897 6.57235C89.1763 7.8677 89.7683 9.47726 89.7665 11.401C89.7683 12.1065 89.6844 12.8341 89.5202 13.5783ZM81.1972 8.62838C80.6124 9.15758 80.2106 9.8741 79.99 10.7763L86.1792 10.78C86.1621 9.87782 85.8697 9.16121 85.3038 8.63022C84.7379 8.09921 84.054 7.83462 83.2505 7.83462C82.4675 7.83462 81.7818 8.09921 81.1972 8.62838Z" fill="#17449C"/>
<path d="M103.556 6.80383C104.787 8.24618 105.402 10.067 105.4 12.2645C105.398 14.462 104.781 16.281 103.549 17.7234C102.316 19.1639 100.739 19.8842 98.8235 19.8842C96.9067 19.8823 95.4548 19.1565 94.4705 17.7032L94.4687 19.5277L91.0732 19.5259L91.0871 0L94.7833 0.00183732L94.7781 6.37205C95.746 5.2145 97.0985 4.63756 98.8321 4.63756C100.75 4.63939 102.324 5.36148 103.556 6.80383ZM100.648 15.1602C101.314 14.4253 101.648 13.4496 101.649 12.2333C101.649 11.0372 101.312 10.0707 100.637 9.3339C99.9617 8.59712 99.1311 8.22964 98.1459 8.2278C97.197 8.2278 96.389 8.57507 95.7218 9.27142C95.0547 9.9678 94.7219 10.9636 94.7202 12.2572C94.7202 13.571 95.0564 14.5686 95.7322 15.2448C96.4072 15.9227 97.2109 16.2608 98.1408 16.2627C99.145 16.2627 99.9807 15.8971 100.648 15.1602Z" fill="#17449C"/>
<path d="M103.556 6.80383C104.787 8.24618 105.402 10.067 105.4 12.2645C105.398 14.462 104.781 16.281 103.549 17.7234C102.316 19.1639 100.739 19.8842 98.8235 19.8842C96.9067 19.8823 95.4548 19.1565 94.4705 17.7032L94.4687 19.5277L91.0732 19.5259L91.0871 0L94.7833 0.00183732L94.7781 6.37205C95.746 5.2145 97.0985 4.63756 98.8321 4.63756C100.75 4.63939 102.324 5.36148 103.556 6.80383ZM100.648 15.1602C101.314 14.4253 101.648 13.4496 101.649 12.2333C101.649 11.0372 101.312 10.0707 100.637 9.3339C99.9617 8.59712 99.1311 8.22964 98.1459 8.2278C97.197 8.2278 96.389 8.57507 95.7218 9.27142C95.0547 9.9678 94.7219 10.9636 94.7202 12.2572C94.7202 13.571 95.0564 14.5686 95.7322 15.2448C96.4072 15.9227 97.2109 16.2608 98.1408 16.2627C99.145 16.2627 99.9807 15.8971 100.648 15.1602Z" fill="#17449C"/>
<path d="M127.324 6.85178C128.747 8.31433 129.458 10.115 129.456 12.2537C129.454 14.3924 128.741 16.1967 127.317 17.6684C125.893 19.1402 124.166 19.8733 122.14 19.8715C120.114 19.8697 118.403 19.1384 117.005 17.6758C115.611 16.2133 114.913 14.4034 114.913 12.2445C114.915 10.1058 115.617 8.30515 117.024 6.84442C118.431 5.38371 120.148 4.65427 122.174 4.6561C124.184 4.6561 125.9 5.38738 127.324 6.85178ZM119.654 9.4057C118.996 10.1609 118.667 11.1163 118.666 12.2738C118.666 13.4315 118.994 14.3777 119.651 15.1145C120.307 15.8513 121.147 16.2187 122.169 16.2206C123.172 16.2206 124.009 15.8494 124.675 15.1035C125.342 14.3575 125.675 13.4168 125.677 12.2794C125.679 11.1421 125.346 10.1903 124.679 9.42411C124.012 8.65792 123.178 8.27575 122.174 8.27391C121.152 8.27391 120.31 8.65057 119.654 9.4057Z" fill="#17449C"/>
<path d="M127.324 6.85178C128.747 8.31433 129.458 10.115 129.456 12.2537C129.454 14.3924 128.741 16.1967 127.317 17.6684C125.893 19.1402 124.166 19.8733 122.14 19.8715C120.114 19.8697 118.403 19.1384 117.005 17.6758C115.611 16.2133 114.913 14.4034 114.913 12.2445C114.915 10.1058 115.617 8.30515 117.024 6.84442C118.431 5.38371 120.148 4.65427 122.174 4.6561C124.184 4.6561 125.9 5.38738 127.324 6.85178ZM119.654 9.4057C118.996 10.1609 118.667 11.1163 118.666 12.2738C118.666 13.4315 118.994 14.3777 119.651 15.1145C120.307 15.8513 121.147 16.2187 122.169 16.2206C123.172 16.2206 124.009 15.8494 124.675 15.1035C125.342 14.3575 125.675 13.4168 125.677 12.2794C125.679 11.1421 125.346 10.1903 124.679 9.42411C124.012 8.65792 123.178 8.27575 122.174 8.27391C121.152 8.27391 120.31 8.65057 119.654 9.4057Z" fill="#17449C"/>
<path d="M130.875 19.3571L134.445 19.3589L134.452 9.14681L137.336 9.14862L137.338 5.88249L134.454 5.88073L134.455 5.70466C134.455 4.91411 134.65 4.35597 135.038 4.02671C135.427 3.69746 136.026 3.53371 136.837 3.53371C137.019 3.53371 137.212 3.54428 137.417 3.56365L137.418 0.295785C136.946 0.181338 136.452 0.123235 135.94 0.123235C134.371 0.121475 133.136 0.558129 132.235 1.43144C131.336 2.30474 130.885 3.61647 130.885 5.36485L130.875 19.3571Z" fill="#17449C"/>
<path d="M130.875 19.3571L134.445 19.3589L134.452 9.14681L137.336 9.14862L137.338 5.88249L134.454 5.88073L134.455 5.70466C134.455 4.91411 134.65 4.35597 135.038 4.02671C135.427 3.69746 136.026 3.53371 136.837 3.53371C137.019 3.53371 137.212 3.54428 137.417 3.56365L137.418 0.295785C136.946 0.181338 136.452 0.123235 135.94 0.123235C134.371 0.121475 133.136 0.558129 132.235 1.43144C131.336 2.30474 130.885 3.61647 130.885 5.36485L130.875 19.3571Z" fill="#17449C"/>
<path d="M138.608 19.3571L142.179 19.3589L142.185 9.14681L145.069 9.14862L145.071 5.88249L142.187 5.88073L142.189 5.70466C142.189 4.91411 142.384 4.35597 142.772 4.02671C143.16 3.69746 143.76 3.53371 144.571 3.53371C144.752 3.53371 144.946 3.54428 145.15 3.56365L145.152 0.295785C144.679 0.181338 144.186 0.123235 143.674 0.123235C142.105 0.121475 140.869 0.558129 139.969 1.43144C139.069 2.30474 138.618 3.61647 138.618 5.36485L138.608 19.3571Z" fill="#17449C"/>
<path d="M138.608 19.3571L142.179 19.3589L142.185 9.14681L145.069 9.14862L145.071 5.88249L142.187 5.88073L142.189 5.70466C142.189 4.91411 142.384 4.35597 142.772 4.02671C143.16 3.69746 143.76 3.53371 144.571 3.53371C144.752 3.53371 144.946 3.54428 145.15 3.56365L145.152 0.295785C144.679 0.181338 144.186 0.123235 143.674 0.123235C142.105 0.121475 140.869 0.558129 139.969 1.43144C139.069 2.30474 138.618 3.61647 138.618 5.36485L138.608 19.3571Z" fill="#17449C"/>
<path d="M110.461 8.23337L110.457 14.1718C110.457 14.9967 110.658 15.5792 111.06 15.9228C111.461 16.2664 112.082 16.4391 112.921 16.4391C113.249 16.4391 113.615 16.4097 114.017 16.351L114.015 19.6766C113.376 19.8915 112.701 20 111.989 19.9981C110.365 19.9963 109.087 19.5406 108.156 18.6275C107.226 17.7143 106.761 16.3454 106.763 14.5209L106.766 8.22969L106.768 4.87463L106.77 0.0202637L110.466 0.022101L110.464 4.87647L110.461 8.23337Z" fill="#17449C"/>
<path d="M110.461 8.23337L110.457 14.1718C110.457 14.9967 110.658 15.5792 111.06 15.9228C111.461 16.2664 112.082 16.4391 112.921 16.4391C113.249 16.4391 113.615 16.4097 114.017 16.351L114.015 19.6766C113.376 19.8915 112.701 20 111.989 19.9981C110.365 19.9963 109.087 19.5406 108.156 18.6275C107.226 17.7143 106.761 16.3454 106.763 14.5209L106.766 8.22969L106.768 4.87463L106.77 0.0202637L110.466 0.022101L110.464 4.87647L110.461 8.23337Z" fill="#17449C"/>
<path d="M111.428 5.54901L114.557 5.55085L114.555 8.90594L111.427 8.90404L111.428 5.54901Z" fill="#17449C"/>
<path d="M111.428 5.54901L114.557 5.55085L114.555 8.90594L111.427 8.90404L111.428 5.54901Z" fill="#17449C"/>
<path d="M159.303 13.6283L149.773 13.6209C150.009 14.5433 150.462 15.2544 151.126 15.756C151.794 16.2575 152.619 16.5075 153.604 16.5075C154.938 16.5075 156.198 16.0187 157.384 15.0393L158.916 17.7477C157.309 19.1992 155.5 19.9232 153.493 19.9213C151.357 19.9195 149.586 19.1882 148.181 17.7257C146.775 16.2631 146.074 14.4532 146.074 12.2944C146.076 10.1556 146.757 8.35129 148.117 6.87955C149.478 5.40963 151.163 4.67468 153.171 4.67468C155.053 4.67652 156.586 5.32511 157.77 6.62047C158.957 7.91583 159.549 9.52542 159.547 11.4492C159.551 12.1565 159.469 12.8823 159.303 13.6283ZM150.981 8.67834C150.397 9.20747 149.995 9.92408 149.775 10.8262L155.963 10.8299C155.946 9.92779 155.654 9.21119 155.088 8.68018C154.522 8.14918 153.838 7.8846 153.035 7.8846C152.25 7.8846 151.566 8.14918 150.981 8.67834Z" fill="#17449C"/>
<path d="M159.303 13.6283L149.773 13.6209C150.009 14.5433 150.462 15.2544 151.126 15.756C151.794 16.2575 152.619 16.5075 153.604 16.5075C154.938 16.5075 156.198 16.0187 157.384 15.0393L158.916 17.7477C157.309 19.1992 155.5 19.9232 153.493 19.9213C151.357 19.9195 149.586 19.1882 148.181 17.7257C146.775 16.2631 146.074 14.4532 146.074 12.2944C146.076 10.1556 146.757 8.35129 148.117 6.87955C149.478 5.40963 151.163 4.67468 153.171 4.67468C155.053 4.67652 156.586 5.32511 157.77 6.62047C158.957 7.91583 159.549 9.52542 159.547 11.4492C159.551 12.1565 159.469 12.8823 159.303 13.6283ZM150.981 8.67834C150.397 9.20747 149.995 9.92408 149.775 10.8262L155.963 10.8299C155.946 9.92779 155.654 9.21119 155.088 8.68018C154.522 8.14918 153.838 7.8846 153.035 7.8846C152.25 7.8846 151.566 8.14918 150.981 8.67834Z" fill="#17449C"/>
<path d="M173.576 13.6367L164.047 13.6294C164.283 14.5517 164.735 15.2627 165.401 15.7644C166.068 16.266 166.893 16.5158 167.879 16.5158C169.212 16.5158 170.472 16.0271 171.659 15.0478L173.19 17.7561C171.583 19.2076 169.775 19.9315 167.767 19.9297C165.632 19.9279 163.861 19.1966 162.455 17.734C161.05 16.2715 160.349 14.4617 160.349 12.3027C160.35 10.164 161.03 8.3597 162.392 6.88796C163.753 5.41806 165.437 4.68311 167.446 4.68311C169.326 4.68494 170.86 5.33354 172.045 6.6289C173.231 7.92425 173.823 9.53378 173.821 11.4575C173.824 12.165 173.74 12.8907 173.576 13.6367ZM165.254 8.68676C164.669 9.21592 164.267 9.93253 164.047 10.8347L170.236 10.8383C170.219 9.93616 169.927 9.21964 169.361 8.6886C168.795 8.15759 168.111 7.89301 167.307 7.89301C166.524 7.89301 165.838 8.15759 165.254 8.68676Z" fill="#17449C"/>
<path d="M173.576 13.6367L164.047 13.6294C164.283 14.5517 164.735 15.2627 165.401 15.7644C166.068 16.266 166.893 16.5158 167.879 16.5158C169.212 16.5158 170.472 16.0271 171.659 15.0478L173.19 17.7561C171.583 19.2076 169.775 19.9315 167.767 19.9297C165.632 19.9279 163.861 19.1966 162.455 17.734C161.05 16.2715 160.349 14.4617 160.349 12.3027C160.35 10.164 161.03 8.3597 162.392 6.88796C163.753 5.41806 165.437 4.68311 167.446 4.68311C169.326 4.68494 170.86 5.33354 172.045 6.6289C173.231 7.92425 173.823 9.53378 173.821 11.4575C173.824 12.165 173.74 12.8907 173.576 13.6367ZM165.254 8.68676C164.669 9.21592 164.267 9.93253 164.047 10.8347L170.236 10.8383C170.219 9.93616 169.927 9.21964 169.361 8.6886C168.795 8.15759 168.111 7.89301 167.307 7.89301C166.524 7.89301 165.838 8.15759 165.254 8.68676Z" fill="#17449C"/>
<path d="M37.4444 18.8809C37.4444 19.4958 36.9752 20 36.403 20H29.1429C28.5707 20 28.1016 19.4958 28.1016 18.8809V11.0787C28.1016 10.4637 28.5707 9.9595 29.1429 9.9595H36.403C36.9752 9.9595 37.4444 10.4637 37.4444 11.0787V18.8809Z" fill="#07BFDD"/>
<path d="M37.4444 18.8809C37.4444 19.4958 36.9752 20 36.403 20H29.1429C28.5707 20 28.1016 19.4958 28.1016 18.8809V11.0787C28.1016 10.4637 28.5707 9.9595 29.1429 9.9595H36.403C36.9752 9.9595 37.4444 10.4637 37.4444 11.0787V18.8809Z" fill="#07BFDD"/>
<path d="M46.9043 9.04457C46.9043 9.65955 46.4352 10.1637 45.863 10.1637H38.6028C38.0306 10.1637 37.5615 9.65955 37.5615 9.04457V1.24232C37.5615 0.627376 38.0306 0.12323 38.6028 0.12323H45.863C46.4352 0.12323 46.9043 0.627376 46.9043 1.24232V9.04457Z" fill="#007FFF"/>
<path d="M46.9043 9.04457C46.9043 9.65955 46.4352 10.1637 45.863 10.1637H38.6028C38.0306 10.1637 37.5615 9.65955 37.5615 9.04457V1.24232C37.5615 0.627376 38.0306 0.12323 38.6028 0.12323H45.863C46.4352 0.12323 46.9043 0.627376 46.9043 1.24232V9.04457Z" fill="#007FFF"/>
<path d="M18.7901 18.8809C18.7901 19.4958 18.321 20 17.7487 20H10.4886C9.91645 20 9.44727 19.4958 9.44727 18.8809V11.0787C9.44727 10.4637 9.91645 9.9595 10.4886 9.9595H17.7487C18.321 9.9595 18.7901 10.4637 18.7901 11.0787V18.8809Z" fill="#1DA5F8"/>
<path d="M18.7901 18.8809C18.7901 19.4958 18.321 20 17.7487 20H10.4886C9.91645 20 9.44727 19.4958 9.44727 18.8809V11.0787C9.44727 10.4637 9.91645 9.9595 10.4886 9.9595H17.7487C18.321 9.9595 18.7901 10.4637 18.7901 11.0787V18.8809Z" fill="#1DA5F8"/>
<path d="M9.34282 9.04542C9.34282 9.66039 8.87364 10.1645 8.30145 10.1645H1.04133C0.469115 10.1645 0 9.66221 0 9.04542V1.24315C0 0.628201 0.469115 0.124054 1.04133 0.124054H8.30145C8.87364 0.124054 9.34282 0.628201 9.34282 1.24315V9.04542Z" fill="#8CC936"/>
<path d="M9.34282 9.04542C9.34282 9.66039 8.87364 10.1645 8.30145 10.1645H1.04133C0.469115 10.1645 0 9.66221 0 9.04542V1.24315C0 0.628201 0.469115 0.124054 1.04133 0.124054H8.30145C8.87364 0.124054 9.34282 0.628201 9.34282 1.24315V9.04542Z" fill="#8CC936"/>
</svg>